<svg width="476" height="155" xmlns="http://www.w3.org/2000/svg"><defs><linearGradient x1="0%" y1=".1%" y2="99.9%" id="a"><stop stop-color="#FF3367" offset="0%"/><stop stop-color="#FF3393" offset="26.8%"/><stop stop-color="#844FFF" offset="100%"/></linearGradient><linearGradient x1="0%" y1=".1%" y2="99.9%" id="b"><stop stop-color="#FF3367" offset="0%"/><stop stop-color="#FF3393" offset="26.8%"/><stop stop-color="#844FFF" offset="100%"/></linearGradient></defs><g fill="none" fill-rule="evenodd"><path d="M-41-47h557v249H-41z"/><g fill-rule="nonzero"><path fill="url(#a)" d="M9.5 145.5h130.2v9H.5v-139h9z"/><path fill="url(#b)" d="M18.7 0h136.5v136.4H18.7z"/><path d="M82 49v44c0 .5-.3.8-.9.8H72c-.6 0-1-.3-1-.9v-3.3c-3.6 3.1-7.8 5.1-13.7 5.1-9.9 0-15.9-5.9-15.9-15.3V49c0-.6.3-1 1-1h9c.7 0 1 .4 1 1v26.4c0 6.8 2.8 9.4 7.8 9.4C65.9 85 71 80.5 71 69.7V49.1c0-.6.3-1 .9-1H81c.6 0 1 .4 1 1zm5.6 62V49c0-.5.3-.8 1-.8h9c.7 0 1 .3 1 .9v2.8a20 20 0 0 1 13-4.6c12.4 0 20.8 9 20.8 23.7 0 14.6-8.4 23.7-20.7 23.7-5 0-9.2-1.4-13.1-4.5v20.7c0 .6-.3 1-1 1h-9c-.7 0-1-.4-1-1zM98 71c0 7.8 4.3 14 11.5 14S121 78.7 121 71s-4.3-14-11.5-14S98 63.3 98 71z" fill="#FFF"/><path d="M181.2 50.5v-3.8c0-.5.2-.7.7-.7h13.5c.5 0 .7.2.7.7v43.1h10.3c.4 0 .7.2.7.7v3.8c0 .5-.3.7-.8.7h-25.8c-.5 0-.7-.2-.7-.7v-3.8c0-.5.2-.7.7-.7h10.2V51.2h-8.8c-.5 0-.7-.2-.7-.7zM251.6 79h-26.3c.6 6.6 4 11.4 10.9 11.4 5 0 7.9-2 9.6-6.4.2-.6.4-.6 1-.6h4.5c.3 0 .5.2.5.4l-.2.7a15 15 0 0 1-15.4 11.1c-11 0-16.8-8-16.8-18.3s6.7-18.2 16.8-18.2c10.6 0 16.1 8.5 16.1 18.2v1c0 .5-.2.7-.7.7zm-15.4-14.8c-5.3 0-9.5 3.7-10.6 9.6h20.8c-1-5.7-5.2-9.6-10.2-9.6zM296 61l-12.3 33.3c-.2.5-.4.7-.8.7h-5c-.3 0-.6-.2-.8-.7L265 61v-.5c0-.4.2-.6.6-.6h4.7c.6 0 .8.2 1 .7l9.2 27 9.3-27c.1-.5.4-.7 1-.7h4.7c.4 0 .6.2.6.6v.5zM340.9 79h-26.4c.6 6.6 4.1 11.4 10.9 11.4 5 0 7.9-2 9.6-6.4.2-.6.5-.6 1-.6h4.5c.4 0 .5.2.5.4l-.1.7a15 15 0 0 1-15.5 11.1c-11 0-16.7-8-16.7-18.3s6.6-18.2 16.7-18.2c10.6 0 16.2 8.5 16.2 18.2v1c0 .5-.3.7-.7.7zm-15.5-14.8c-5.3 0-9.5 3.7-10.6 9.6h20.9c-1.1-5.7-5.3-9.6-10.3-9.6zm31-13.8v-3.8c0-.5.2-.7.7-.7h13.5c.5 0 .7.2.7.7v43.1h10.2c.5 0 .7.2.7.7v3.8c0 .5-.2.7-.7.7h-25.8c-.5 0-.7-.2-.7-.7v-3.8c0-.5.2-.7.7-.7h10.1V51.2h-8.7c-.5 0-.7-.2-.7-.7zM426.8 79h-26.3c.5 6.6 4 11.4 10.8 11.4 5 0 8-2 9.6-6.4.2-.6.5-.6 1-.6h4.6c.3 0 .4.2.4.4l-.1.7a15 15 0 0 1-15.5 11.1c-10.9 0-16.7-8-16.7-18.3s6.6-18.2 16.7-18.2c10.7 0 16.2 8.5 16.2 18.2v1c0 .5-.2.7-.7.7zm-15.5-14.8c-5.2 0-9.4 3.7-10.5 9.6h20.8c-1.1-5.7-5.2-9.6-10.3-9.6zm63.4-17.6v47.6c0 .5-.2.7-.7.7h-4c-.6 0-.8-.2-.8-.7V91c-2.2 2.8-6 4.7-10.8 4.7-9.1 0-15-7-15-18.3 0-11.2 5.9-18.2 15-18.2 4.4 0 8.4 2 10.8 4.6V46.8c0-.5.2-.7.7-.7h4c.6 0 .8.2.8.7zm-5 30.7c0-7.3-3.6-13-10.2-13-6.7 0-10.4 5.7-10.4 13 0 7.4 3.7 13.1 10.4 13.1 6.6 0 10.3-5.7 10.3-13z" stroke="#000" stroke-width="1.2" fill="#000"/></g></g></svg>